<svg width="21" height="24" viewBox="0 0 21 24" fill="none" xmlns="http://www.w3.org/2000/svg">
<path d="M18.75 1.5H2.25C1.00781 1.5 0 2.50781 0 3.75V20.25C0 21.4922 1.00781 22.5 2.25 22.5H18.75C19.9922 22.5 21 21.4922 21 20.25V3.75C21 2.50781 19.9922 1.5 18.75 1.5ZM12.9984 19.4859C12.6047 19.5563 12.4594 19.3125 12.4594 19.1109C12.4594 18.8578 12.4688 17.5641 12.4688 16.5187C12.4688 15.7875 12.225 15.3234 11.9391 15.0797C13.6734 14.8875 15.5016 14.6484 15.5016 11.6531C15.5016 10.8 15.1969 10.3734 14.7 9.825C14.7797 9.62344 15.0469 8.79375 14.6203 7.71563C13.9688 7.51406 12.4781 8.55469 12.4781 8.55469C11.8594 8.38125 11.1891 8.29219 10.5281 8.29219C9.86719 8.29219 9.19687 8.38125 8.57812 8.55469C8.57812 8.55469 7.0875 7.51406 6.43594 7.71563C6.00938 8.78906 6.27188 9.61875 6.35625 9.825C5.85938 10.3734 5.625 10.8 5.625 11.6531C5.625 14.6344 7.37344 14.8875 9.10781 15.0797C8.88281 15.2813 8.68125 15.6281 8.61094 16.125C8.16562 16.3266 7.02656 16.6734 6.34687 15.4734C5.92031 14.7328 5.15156 14.6719 5.15156 14.6719C4.39219 14.6625 5.1 15.15 5.1 15.15C5.60625 15.3844 5.9625 16.2844 5.9625 16.2844C6.41719 17.6766 8.59219 17.2078 8.59219 17.2078C8.59219 17.8594 8.60156 18.9188 8.60156 19.1109C8.60156 19.3125 8.46094 19.5563 8.0625 19.4859C4.96875 18.45 2.80312 15.5062 2.80312 12.0656C2.80312 7.7625 6.09375 4.49531 10.3969 4.49531C14.7 4.49531 18.1875 7.7625 18.1875 12.0656C18.1922 15.5062 16.0922 18.4547 12.9984 19.4859ZM8.4 16.6219C8.31094 16.6406 8.22656 16.6031 8.21719 16.5422C8.20781 16.4719 8.26875 16.4109 8.35781 16.3922C8.44688 16.3828 8.53125 16.4203 8.54062 16.4813C8.55469 16.5422 8.49375 16.6031 8.4 16.6219ZM7.95469 16.5797C7.95469 16.6406 7.88437 16.6922 7.79062 16.6922C7.6875 16.7016 7.61719 16.65 7.61719 16.5797C7.61719 16.5188 7.6875 16.4672 7.78125 16.4672C7.87031 16.4578 7.95469 16.5094 7.95469 16.5797ZM7.3125 16.5281C7.29375 16.5891 7.2 16.6172 7.12031 16.5891C7.03125 16.5703 6.97031 16.5 6.98906 16.4391C7.00781 16.3781 7.10156 16.35 7.18125 16.3688C7.275 16.3969 7.33594 16.4672 7.3125 16.5281ZM6.73594 16.275C6.69375 16.3266 6.60469 16.3172 6.53437 16.2469C6.46406 16.1859 6.44531 16.0969 6.49219 16.0547C6.53438 16.0031 6.62344 16.0125 6.69375 16.0828C6.75469 16.1438 6.77812 16.2375 6.73594 16.275ZM6.30938 15.8484C6.26719 15.8766 6.1875 15.8484 6.13594 15.7781C6.08437 15.7078 6.08437 15.6281 6.13594 15.5953C6.1875 15.5531 6.26719 15.5859 6.30938 15.6562C6.36094 15.7266 6.36094 15.8109 6.30938 15.8484ZM6.00469 15.3937C5.9625 15.4359 5.89219 15.4125 5.84062 15.3656C5.78906 15.3047 5.77969 15.2344 5.82187 15.2016C5.86406 15.1594 5.93437 15.1828 5.98594 15.2297C6.0375 15.2906 6.04688 15.3609 6.00469 15.3937ZM5.69063 15.0469C5.67188 15.0891 5.61094 15.0984 5.55937 15.0656C5.49844 15.0375 5.47031 14.9859 5.48906 14.9437C5.50781 14.9156 5.55938 14.9016 5.62031 14.925C5.68125 14.9578 5.70937 15.0094 5.69063 15.0469Z" fill="white"/>
</svg>
