<svg width="230" height="61" viewBox="0 0 230 61" fill="none" xmlns="http://www.w3.org/2000/svg">
<path d="M96.3438 21.0068H99.2734V39H96.3438V21.0068ZM101.764 21.0068C103.277 21.0068 104.604 21.251 105.743 21.7393C106.899 22.2113 107.851 22.846 108.6 23.6436C109.365 24.4411 109.934 25.3525 110.309 26.3779C110.683 27.387 110.87 28.4287 110.87 29.5029C110.87 30.984 110.707 32.2536 110.382 33.3115C110.073 34.3532 109.674 35.2321 109.186 35.9482C108.697 36.6481 108.144 37.2015 107.525 37.6084C106.923 38.0153 106.337 38.3245 105.768 38.5361C105.198 38.7314 104.677 38.8617 104.205 38.9268C103.733 38.9756 103.383 39 103.155 39H100.274V36.8516H102.179C104.164 36.8516 105.597 36.2168 106.476 34.9473C107.354 33.6777 107.794 31.8385 107.794 29.4297C107.794 28.681 107.704 27.9404 107.525 27.208C107.346 26.4756 106.996 25.8164 106.476 25.2305C105.971 24.6283 105.279 24.1481 104.4 23.79C103.521 23.4157 102.382 23.2285 100.982 23.2285H100.274V21.0068H101.764ZM115.118 21.0068H118.097V39H115.118V21.0068ZM125.616 30.8945H119.098V28.8926H125.616V30.8945ZM119.098 36.7783H126.373V39H119.098V36.7783ZM126.373 21.0068V23.2285H119.098V21.0068H126.373ZM129.596 21.0068H132.94L136.725 35.1182V39.0977H135.187L129.596 21.0068ZM141.534 21.0068H144.854L138.995 39.0977H137.726V34.3369L141.534 21.0068ZM169.952 39H166.925L162.262 25.5234L157.55 39H154.498L160.797 21.0312H163.702L169.952 39ZM163.873 33.2871L164.581 35.2646H159.918L160.602 33.2871H163.873ZM176.227 25.2305L176.544 26.6221V39H173.59V25.2305H176.227ZM183.844 26.7441C184.12 27.0208 184.332 27.3464 184.479 27.7207C184.641 28.0788 184.755 28.4613 184.82 28.8682C184.902 29.2588 184.951 29.6576 184.967 30.0645C184.983 30.4714 184.991 30.8701 184.991 31.2607V38.5117V39H182.013V31.5049C182.013 30.9515 181.988 30.4225 181.939 29.918C181.891 29.4134 181.777 28.9658 181.598 28.5752C181.419 28.1846 181.174 27.8835 180.865 27.6719C180.556 27.444 180.125 27.3301 179.571 27.3301C179.343 27.3301 179.034 27.3708 178.644 27.4521C178.269 27.5173 177.903 27.6312 177.545 27.7939V25.9141C177.984 25.6862 178.456 25.4909 178.961 25.3281C179.482 25.1654 179.986 25.084 180.475 25.084C181.207 25.084 181.826 25.2386 182.33 25.5479C182.835 25.8408 183.339 26.2396 183.844 26.7441ZM200.543 20.0303V39H197.735L197.564 37.3643V20.0303H200.543ZM188.189 31.9199C188.189 30.6504 188.36 29.5843 188.702 28.7217C189.06 27.859 189.516 27.1592 190.069 26.6221C190.623 26.085 191.233 25.7025 191.9 25.4746C192.584 25.2305 193.251 25.1084 193.902 25.1084C194.407 25.1084 194.887 25.1654 195.343 25.2793C195.799 25.3932 196.205 25.556 196.563 25.7676V28.3555C196.287 28.0625 195.978 27.8265 195.636 27.6475C195.294 27.4684 194.911 27.3789 194.488 27.3789C193.984 27.3789 193.536 27.5091 193.146 27.7695C192.755 28.0137 192.421 28.3555 192.145 28.7949C191.884 29.2344 191.681 29.7389 191.534 30.3086C191.388 30.8783 191.314 31.4886 191.314 32.1396C191.314 32.7907 191.396 33.401 191.559 33.9707C191.721 34.5241 191.941 35.0124 192.218 35.4355C192.494 35.8587 192.828 36.1924 193.219 36.4365C193.626 36.6807 194.065 36.8027 194.537 36.8027C195.335 36.8027 196.01 36.4854 196.563 35.8506V38.3896C196.173 38.6012 195.717 38.7803 195.196 38.9268C194.692 39.057 194.155 39.1221 193.585 39.1221C192.934 39.1221 192.291 39.0081 191.656 38.7803C191.038 38.5361 190.484 38.1455 189.996 37.6084C189.378 36.9085 188.922 36.0459 188.629 35.0205C188.336 33.9788 188.189 32.9453 188.189 31.9199ZM207.354 25.2305L207.672 26.6465V34.1172V34.166V39H204.718V25.2305H207.354ZM208.673 25.8408C209.08 25.613 209.568 25.4421 210.138 25.3281C210.707 25.1979 211.48 25.1328 212.457 25.1328V28.209C212.001 28.0788 211.448 28.0055 210.797 27.9893C210.439 27.9893 210.073 28.0218 209.698 28.0869C209.34 28.1357 208.998 28.2171 208.673 28.3311V25.8408ZM222.003 25.1084C222.882 25.1898 223.671 25.4258 224.371 25.8164C225.087 26.207 225.698 26.7116 226.202 27.3301C226.707 27.9486 227.089 28.6566 227.35 29.4541C227.626 30.2516 227.765 31.0817 227.765 31.9443C227.765 32.335 227.74 32.7256 227.691 33.1162H219.317V30.9678H224.957C224.957 30.5446 224.884 30.1377 224.737 29.7471C224.607 29.3564 224.404 28.9984 224.127 28.6729C223.867 28.3311 223.557 28.0462 223.199 27.8184C222.841 27.5905 222.442 27.4521 222.003 27.4033V25.1084ZM221.905 36.7051C222.084 36.7051 222.304 36.6888 222.564 36.6562C222.841 36.6074 223.126 36.5342 223.419 36.4365C223.728 36.3226 224.029 36.1842 224.322 36.0215C224.632 35.8587 224.9 35.6634 225.128 35.4355L226.202 37.0713C225.665 37.7386 225.038 38.2432 224.322 38.585C223.606 38.9268 222.695 39.0977 221.588 39.0977C220.693 39.0977 219.854 38.9186 219.073 38.5605C218.292 38.1862 217.625 37.6816 217.071 37.0469C216.518 36.4121 216.078 35.6715 215.753 34.8252C215.427 33.9788 215.265 33.0674 215.265 32.0908C215.265 31.1631 215.411 30.2842 215.704 29.4541C216.013 28.624 216.428 27.8997 216.949 27.2812C217.47 26.6465 218.072 26.1338 218.756 25.7432C219.456 25.3525 220.204 25.1328 221.002 25.084V27.4277C220.4 27.5417 219.903 27.7858 219.513 28.1602C219.122 28.5345 218.813 28.9658 218.585 29.4541C218.373 29.9261 218.219 30.4144 218.121 30.9189C218.04 31.4235 217.999 31.8548 217.999 32.2129C217.999 32.8477 218.072 33.4417 218.219 33.9951C218.382 34.5322 218.626 35.0042 218.951 35.4111C219.277 35.8018 219.675 36.1191 220.147 36.3633C220.636 36.5911 221.222 36.7051 221.905 36.7051ZM223.932 20.0303L221.271 23.4971H219.317L220.953 20.0303H223.932Z" fill="white"/>
<path d="M70.1838 29.9316C70.1838 44.4782 58.3915 56.2705 43.8449 56.2705C29.2984 56.2705 17.506 44.4782 17.506 29.9316C17.506 15.3851 29.2984 3.59277 43.8449 3.59277C58.3915 3.59277 70.1838 15.3851 70.1838 29.9316Z" stroke="#AE85ED" stroke-width="2"/>
<path d="M80.7508 7.89666C80.8197 8.01031 80.9026 8.28985 80.6999 8.90876C80.5001 9.51896 80.068 10.3064 79.3666 11.2638C77.9693 13.1711 75.65 15.557 72.5524 18.2666C66.3695 23.6748 57.2347 30.2437 46.6147 36.6775C35.9947 43.1114 25.9426 48.1662 18.2862 51.1421C14.4503 52.633 11.2616 53.5839 8.92409 53.9392C7.75073 54.1176 6.85275 54.1359 6.21939 54.0305C5.57697 53.9236 5.36757 53.7207 5.29872 53.6071C5.22987 53.4934 5.14702 53.2139 5.34969 52.595C5.54952 51.9848 5.98158 51.1973 6.68299 50.2399C8.08029 48.3327 10.3996 45.9467 13.4972 43.2371C19.68 37.8289 28.8149 31.26 39.4349 24.8262C50.0549 18.3924 60.107 13.3375 67.7634 10.3616C71.5993 8.87069 74.788 7.91982 77.1255 7.56449C78.2988 7.38612 79.1968 7.36777 79.8302 7.4732C80.4726 7.58014 80.682 7.78302 80.7508 7.89666Z" stroke="#AE85ED" stroke-width="2"/>
</svg>
