<svg width="130" height="130" viewBox="0 0 130 130" fill="none" xmlns="http://www.w3.org/2000/svg">
<g clip-path="url(#clip0_70_3)">
<path fill-rule="evenodd" clip-rule="evenodd" d="M77.94 26.83L77.585 27.22C77.1239 27.7252 76.6572 28.2252 76.185 28.72C75.9379 28.3953 75.6913 28.0703 75.445 27.745C73.905 25.745 72.605 24.275 71.21 23.095C69.3 21.485 67.31 20.51 65 20.51C63.75 20.51 62.565 20.815 61.45 21.36C59.01 22.54 57.2 24.515 54.785 27.89C54.5839 28.1725 54.3839 28.4559 54.185 28.74C53.725 28.29 53.2 27.75 52.585 27.105L52.25 26.755C49.48 23.845 48.745 23.105 47.505 22.095C46.335 21.14 45.28 20.495 43.98 20.175C42.5997 19.8134 41.1338 19.9865 39.8757 20.6596C38.6176 21.3327 37.6602 22.4561 37.195 23.805C35.7339 27.8569 34.9911 32.1327 35 36.44C35 56.14 46.06 70 65 70C83.94 70 95 56.145 95 36.44C95.0098 32.1322 94.2652 27.8559 92.8 23.805C92.3368 22.4519 91.3768 21.3252 90.1143 20.6532C88.8518 19.9811 87.3812 19.8137 86 20.185C84.69 20.52 83.65 21.18 82.5 22.16C81.3 23.17 80.625 23.89 77.94 26.83ZM65 60C52.14 60 45 51.05 45 36.44C45 35.54 45.045 34.655 45.125 33.775L45.36 34.015C47.4 36.155 48.66 37.375 49.96 38.375C53.2 40.855 56.48 41.82 59.48 38.39C60.02 37.775 60.55 37.08 61.26 36.075L61.635 35.535L62.92 33.71C63.795 32.48 64.53 31.575 65.065 31.01C65.9584 31.8937 66.7825 32.8448 67.53 33.855C67.305 33.565 70.28 37.54 71.03 38.39C74.04 41.835 77.36 40.84 80.525 38.34C81.775 37.34 82.985 36.125 84.9 34.04C84.965 34.835 85 35.635 85 36.44C85 51.055 77.86 60 65 60Z" fill="white"/>
<path d="M60 70C60 68.6739 60.5268 67.4021 61.4645 66.4645C62.4021 65.5268 63.6739 65 65 65C66.3261 65 67.5979 65.5268 68.5355 66.4645C69.4732 67.4021 70 68.6739 70 70V102.5C70 103.826 69.4732 105.098 68.5355 106.036C67.5979 106.973 66.3261 107.5 65 107.5C63.6739 107.5 62.4021 106.973 61.4645 106.036C60.5268 105.098 60 103.826 60 102.5V70Z" fill="white"/>
<path fill-rule="evenodd" clip-rule="evenodd" d="M73.835 80.075C62.91 89.245 55.725 100.9 61.645 107.955C67.475 114.905 83.545 111.095 93.12 103.055C102.46 95.22 106.72 83.88 100.9 76.945C95.08 70.01 83.175 72.235 73.835 80.075ZM69.6 101.715C69.5369 101.692 69.4765 101.661 69.42 101.625L69.51 101.775C69.55 101.805 69.575 101.795 69.6 101.715ZM86.69 95.395C81.15 100.045 71.62 102.505 69.6 101.715C69.6141 101.666 69.6258 101.616 69.635 101.565C69.825 100.62 70.415 99.28 71.375 97.72C73.395 94.44 76.76 90.675 80.265 87.735C85.935 82.975 91.96 81.85 93.24 83.375C94.52 84.9 92.365 90.635 86.69 95.395Z" fill="white"/>
<path fill-rule="evenodd" clip-rule="evenodd" d="M54.66 80.075C65.59 89.245 72.77 100.9 66.85 107.955C61.02 114.905 44.955 111.095 35.38 103.055C26.035 95.22 21.78 83.88 27.6 76.945C33.42 70.01 45.32 72.235 54.66 80.075ZM58.9 101.715C58.9614 101.691 59.0201 101.661 59.075 101.625L58.985 101.775C58.945 101.805 58.92 101.795 58.9 101.715ZM41.8 95.4C47.34 100.05 56.875 102.51 58.895 101.72C58.8808 101.671 58.8691 101.621 58.86 101.57C58.67 100.625 58.08 99.285 57.12 97.725C55.095 94.445 51.735 90.68 48.23 87.74C42.555 82.98 36.53 81.855 35.255 83.38C33.975 84.905 36.13 90.64 41.805 95.4" fill="white"/>
<path fill-rule="evenodd" clip-rule="evenodd" d="M65 120C95.375 120 120 95.375 120 65C120 34.625 95.375 10 65 10C34.625 10 10 34.625 10 65C10 95.375 34.625 120 65 120ZM65 130C100.9 130 130 100.9 130 65C130 29.1 100.9 0 65 0C29.1 0 0 29.1 0 65C0 100.9 29.1 130 65 130Z" fill="white"/>
</g>
<defs>
<clipPath id="clip0_70_3">
<rect width="130" height="130" fill="white"/>
</clipPath>
</defs>
</svg>
