<svg width="88" height="61" viewBox="0 0 88 61" fill="none" xmlns="http://www.w3.org/2000/svg">
<path d="M71.2443 29.9316C71.2443 44.4599 59.2293 56.2705 44.3668 56.2705C29.5042 56.2705 17.4893 44.4599 17.4893 29.9316C17.4893 15.4034 29.5042 3.59277 44.3668 3.59277C59.2293 3.59277 71.2443 15.4034 71.2443 29.9316Z" stroke="#AE85ED" stroke-width="2"/>
<path d="M82.0122 7.88928C82.0816 8.00163 82.167 8.28147 81.9594 8.9032C81.755 9.51528 81.3134 10.3043 80.5975 11.2626C79.1714 13.1716 76.8051 15.5588 73.6459 18.2688C67.3399 23.6781 58.0239 30.2478 47.1939 36.6821C36.3638 43.1164 26.1125 48.1719 18.3036 51.1484C14.3915 52.6396 11.1383 53.5911 8.75256 53.9467C7.55494 54.1252 6.63736 54.1438 5.98952 54.038C5.33147 53.9306 5.1181 53.7268 5.0487 53.6144C4.97929 53.5021 4.89388 53.2222 5.10149 52.6005C5.30588 51.9884 5.74751 51.1994 6.46342 50.2411C7.88954 48.3321 10.2559 45.9449 13.4151 43.2349C19.721 37.8256 29.037 31.2559 39.867 24.8216C50.6971 18.3873 60.9485 13.3318 68.7573 10.3553C72.6694 8.86415 75.9227 7.91266 78.3084 7.557C79.506 7.37847 80.4236 7.35993 81.0714 7.46569C81.7295 7.57311 81.9428 7.77693 82.0122 7.88928Z" stroke="#AE85ED" stroke-width="2"/>
</svg>
