<svg width="430" height="405" viewBox="0 0 430 405" fill="none" xmlns="http://www.w3.org/2000/svg">
<rect width="430" height="405" fill="#0E402D"/>
<g clip-path="url(#clip0_70_12)">
<path fill-rule="evenodd" clip-rule="evenodd" d="M227.94 99.83L227.585 100.22C227.124 100.725 226.657 101.225 226.185 101.72C225.938 101.395 225.691 101.07 225.445 100.745C223.905 98.745 222.605 97.275 221.21 96.095C219.3 94.485 217.31 93.51 215 93.51C213.75 93.51 212.565 93.815 211.45 94.36C209.01 95.54 207.2 97.515 204.785 100.89C204.584 101.173 204.384 101.456 204.185 101.74C203.725 101.29 203.2 100.75 202.585 100.105L202.25 99.755C199.48 96.845 198.745 96.105 197.505 95.095C196.335 94.14 195.28 93.495 193.98 93.175C192.6 92.8134 191.134 92.9865 189.876 93.6596C188.618 94.3327 187.66 95.4561 187.195 96.805C185.734 100.857 184.991 105.133 185 109.44C185 129.14 196.06 143 215 143C233.94 143 245 129.145 245 109.44C245.01 105.132 244.265 100.856 242.8 96.805C242.337 95.4519 241.377 94.3252 240.114 93.6532C238.852 92.9811 237.381 92.8137 236 93.185C234.69 93.52 233.65 94.18 232.5 95.16C231.3 96.17 230.625 96.89 227.94 99.83ZM215 133C202.14 133 195 124.05 195 109.44C195 108.54 195.045 107.655 195.125 106.775L195.36 107.015C197.4 109.155 198.66 110.375 199.96 111.375C203.2 113.855 206.48 114.82 209.48 111.39C210.02 110.775 210.55 110.08 211.26 109.075L211.635 108.535L212.92 106.71C213.795 105.48 214.53 104.575 215.065 104.01C215.958 104.894 216.782 105.845 217.53 106.855C217.305 106.565 220.28 110.54 221.03 111.39C224.04 114.835 227.36 113.84 230.525 111.34C231.775 110.34 232.985 109.125 234.9 107.04C234.965 107.835 235 108.635 235 109.44C235 124.055 227.86 133 215 133Z" fill="white"/>
<path d="M210 143C210 141.674 210.527 140.402 211.464 139.464C212.402 138.527 213.674 138 215 138C216.326 138 217.598 138.527 218.536 139.464C219.473 140.402 220 141.674 220 143V175.5C220 176.826 219.473 178.098 218.536 179.036C217.598 179.973 216.326 180.5 215 180.5C213.674 180.5 212.402 179.973 211.464 179.036C210.527 178.098 210 176.826 210 175.5V143Z" fill="white"/>
<path fill-rule="evenodd" clip-rule="evenodd" d="M223.835 153.075C212.91 162.245 205.725 173.9 211.645 180.955C217.475 187.905 233.545 184.095 243.12 176.055C252.46 168.22 256.72 156.88 250.9 149.945C245.08 143.01 233.175 145.235 223.835 153.075ZM219.6 174.715C219.537 174.692 219.477 174.661 219.42 174.625L219.51 174.775C219.55 174.805 219.575 174.795 219.6 174.715ZM236.69 168.395C231.15 173.045 221.62 175.505 219.6 174.715C219.614 174.666 219.626 174.616 219.635 174.565C219.825 173.62 220.415 172.28 221.375 170.72C223.395 167.44 226.76 163.675 230.265 160.735C235.935 155.975 241.96 154.85 243.24 156.375C244.52 157.9 242.365 163.635 236.69 168.395Z" fill="white"/>
<path fill-rule="evenodd" clip-rule="evenodd" d="M204.66 153.075C215.59 162.245 222.77 173.9 216.85 180.955C211.02 187.905 194.955 184.095 185.38 176.055C176.035 168.22 171.78 156.88 177.6 149.945C183.42 143.01 195.32 145.235 204.66 153.075ZM208.9 174.715C208.961 174.691 209.02 174.661 209.075 174.625L208.985 174.775C208.945 174.805 208.92 174.795 208.9 174.715ZM191.8 168.4C197.34 173.05 206.875 175.51 208.895 174.72C208.881 174.671 208.869 174.621 208.86 174.57C208.67 173.625 208.08 172.285 207.12 170.725C205.095 167.445 201.735 163.68 198.23 160.74C192.555 155.98 186.53 154.855 185.255 156.38C183.975 157.905 186.13 163.64 191.805 168.4" fill="white"/>
<path fill-rule="evenodd" clip-rule="evenodd" d="M215 193C245.375 193 270 168.375 270 138C270 107.625 245.375 83 215 83C184.625 83 160 107.625 160 138C160 168.375 184.625 193 215 193ZM215 203C250.9 203 280 173.9 280 138C280 102.1 250.9 73 215 73C179.1 73 150 102.1 150 138C150 173.9 179.1 203 215 203Z" fill="white"/>
</g>
<path d="M104.797 260V234.545H120.581V237.852H108.637V245.607H119.45V248.901H108.637V260H104.797ZM128.722 234.545V260H125.006V234.545H128.722ZM141.763 260.385C139.974 260.385 138.412 259.975 137.078 259.155C135.744 258.335 134.708 257.187 133.97 255.712C133.233 254.237 132.864 252.514 132.864 250.542C132.864 248.561 133.233 246.829 133.97 245.346C134.708 243.863 135.744 242.711 137.078 241.891C138.412 241.071 139.974 240.661 141.763 240.661C143.553 240.661 145.115 241.071 146.449 241.891C147.783 242.711 148.819 243.863 149.556 245.346C150.294 246.829 150.663 248.561 150.663 250.542C150.663 252.514 150.294 254.237 149.556 255.712C148.819 257.187 147.783 258.335 146.449 259.155C145.115 259.975 143.553 260.385 141.763 260.385ZM141.776 257.266C142.936 257.266 143.897 256.959 144.659 256.346C145.422 255.733 145.985 254.917 146.35 253.897C146.723 252.878 146.909 251.755 146.909 250.529C146.909 249.311 146.723 248.192 146.35 247.173C145.985 246.146 145.422 245.321 144.659 244.7C143.897 244.078 142.936 243.768 141.776 243.768C140.608 243.768 139.638 244.078 138.867 244.7C138.105 245.321 137.538 246.146 137.165 247.173C136.8 248.192 136.618 249.311 136.618 250.529C136.618 251.755 136.8 252.878 137.165 253.897C137.538 254.917 138.105 255.733 138.867 256.346C139.638 256.959 140.608 257.266 141.776 257.266ZM154.811 260V240.909H158.403V243.942H158.602C158.95 242.914 159.563 242.106 160.441 241.518C161.328 240.922 162.33 240.623 163.449 240.623C163.681 240.623 163.954 240.632 164.269 240.648C164.592 240.665 164.845 240.685 165.027 240.71V244.265C164.878 244.223 164.613 244.178 164.232 244.128C163.851 244.07 163.47 244.041 163.088 244.041C162.21 244.041 161.427 244.228 160.739 244.6C160.06 244.965 159.521 245.475 159.124 246.129C158.726 246.776 158.527 247.513 158.527 248.342V260H154.811ZM173.628 260.423C172.418 260.423 171.325 260.199 170.347 259.751C169.369 259.296 168.594 258.637 168.023 257.775C167.459 256.913 167.178 255.857 167.178 254.606C167.178 253.529 167.385 252.642 167.799 251.946C168.213 251.25 168.773 250.699 169.477 250.293C170.181 249.887 170.968 249.58 171.838 249.373C172.708 249.166 173.595 249.009 174.498 248.901C175.642 248.768 176.57 248.661 177.282 248.578C177.995 248.487 178.513 248.342 178.836 248.143C179.159 247.944 179.321 247.621 179.321 247.173V247.086C179.321 246.001 179.014 245.16 178.401 244.563C177.796 243.967 176.893 243.668 175.691 243.668C174.44 243.668 173.454 243.946 172.733 244.501C172.021 245.048 171.528 245.657 171.254 246.328L167.762 245.533C168.176 244.373 168.781 243.436 169.576 242.724C170.38 242.003 171.304 241.481 172.348 241.158C173.392 240.826 174.49 240.661 175.642 240.661C176.404 240.661 177.212 240.752 178.065 240.934C178.927 241.108 179.731 241.431 180.477 241.903C181.231 242.376 181.848 243.051 182.328 243.929C182.809 244.799 183.049 245.93 183.049 247.322V260H179.42V257.39H179.271C179.031 257.871 178.67 258.343 178.19 258.807C177.709 259.271 177.092 259.656 176.338 259.963C175.584 260.269 174.681 260.423 173.628 260.423ZM174.436 257.44C175.464 257.44 176.342 257.237 177.071 256.831C177.808 256.425 178.368 255.894 178.749 255.24C179.138 254.577 179.333 253.868 179.333 253.114V250.653C179.201 250.786 178.944 250.91 178.562 251.026C178.19 251.134 177.763 251.229 177.282 251.312C176.802 251.387 176.334 251.457 175.878 251.523C175.422 251.581 175.041 251.631 174.734 251.673C174.013 251.764 173.355 251.917 172.758 252.132C172.17 252.348 171.698 252.659 171.341 253.065C170.993 253.462 170.819 253.993 170.819 254.656C170.819 255.575 171.159 256.271 171.838 256.744C172.518 257.208 173.384 257.44 174.436 257.44ZM197.56 260V234.545H213.519V237.852H201.401V245.607H212.686V248.901H201.401V256.694H213.668V260H197.56ZM221.284 240.909L225.497 248.342L229.748 240.909H233.812L227.859 250.455L233.862 260H229.798L225.497 252.866L221.209 260H217.133L223.074 250.455L217.207 240.909H221.284ZM237.628 267.159V240.909H241.257V244.004H241.568C241.784 243.606 242.094 243.146 242.5 242.624C242.906 242.102 243.47 241.647 244.191 241.257C244.911 240.859 245.864 240.661 247.049 240.661C248.59 240.661 249.966 241.05 251.176 241.829C252.385 242.608 253.334 243.73 254.022 245.197C254.718 246.664 255.066 248.429 255.066 250.492C255.066 252.555 254.722 254.324 254.034 255.799C253.347 257.266 252.402 258.397 251.201 259.192C249.999 259.979 248.628 260.373 247.087 260.373C245.927 260.373 244.978 260.178 244.24 259.789C243.511 259.399 242.939 258.944 242.525 258.422C242.111 257.9 241.792 257.435 241.568 257.029H241.344V267.159H237.628ZM241.27 250.455C241.27 251.797 241.465 252.973 241.854 253.984C242.243 254.995 242.807 255.787 243.544 256.358C244.282 256.922 245.185 257.203 246.254 257.203C247.364 257.203 248.292 256.909 249.038 256.321C249.784 255.724 250.347 254.917 250.728 253.897C251.118 252.878 251.312 251.731 251.312 250.455C251.312 249.195 251.122 248.064 250.741 247.061C250.368 246.059 249.804 245.268 249.05 244.688C248.305 244.107 247.372 243.817 246.254 243.817C245.177 243.817 244.265 244.095 243.519 244.65C242.782 245.205 242.223 245.98 241.842 246.974C241.46 247.969 241.27 249.129 241.27 250.455ZM259.23 260V240.909H262.822V243.942H263.021C263.369 242.914 263.982 242.106 264.86 241.518C265.747 240.922 266.749 240.623 267.868 240.623C268.1 240.623 268.373 240.632 268.688 240.648C269.011 240.665 269.264 240.685 269.446 240.71V244.265C269.297 244.223 269.032 244.178 268.651 244.128C268.27 244.07 267.889 244.041 267.507 244.041C266.629 244.041 265.846 244.228 265.158 244.6C264.479 244.965 263.94 245.475 263.543 246.129C263.145 246.776 262.946 247.513 262.946 248.342V260H259.23ZM280.207 260.385C278.326 260.385 276.706 259.983 275.347 259.18C273.996 258.368 272.952 257.228 272.215 255.762C271.486 254.287 271.121 252.559 271.121 250.579C271.121 248.623 271.486 246.9 272.215 245.408C272.952 243.917 273.98 242.753 275.297 241.916C276.623 241.079 278.172 240.661 279.946 240.661C281.023 240.661 282.067 240.839 283.078 241.195C284.089 241.551 284.996 242.111 285.8 242.873C286.603 243.635 287.237 244.625 287.701 245.843C288.165 247.053 288.397 248.524 288.397 250.256V251.573H273.222V248.789H284.756C284.756 247.811 284.557 246.945 284.159 246.191C283.761 245.429 283.202 244.828 282.481 244.389C281.769 243.95 280.932 243.73 279.971 243.73C278.926 243.73 278.015 243.987 277.236 244.501C276.466 245.007 275.869 245.669 275.446 246.49C275.032 247.302 274.825 248.184 274.825 249.137V251.312C274.825 252.588 275.049 253.674 275.496 254.569C275.952 255.463 276.586 256.147 277.398 256.619C278.21 257.083 279.158 257.315 280.244 257.315C280.948 257.315 281.59 257.216 282.17 257.017C282.75 256.81 283.252 256.503 283.674 256.097C284.097 255.691 284.42 255.19 284.644 254.593L288.161 255.227C287.879 256.263 287.374 257.17 286.645 257.949C285.924 258.72 285.017 259.321 283.923 259.751C282.837 260.174 281.599 260.385 280.207 260.385ZM306.826 245.57L303.458 246.167C303.317 245.736 303.094 245.326 302.787 244.936C302.489 244.547 302.083 244.228 301.569 243.979C301.055 243.73 300.413 243.606 299.642 243.606C298.59 243.606 297.712 243.842 297.008 244.315C296.303 244.779 295.951 245.379 295.951 246.117C295.951 246.755 296.187 247.269 296.66 247.658C297.132 248.047 297.894 248.366 298.946 248.615L301.979 249.311C303.736 249.717 305.045 250.343 305.907 251.188C306.768 252.033 307.199 253.131 307.199 254.482C307.199 255.625 306.868 256.644 306.205 257.539C305.55 258.426 304.635 259.122 303.458 259.627C302.29 260.133 300.935 260.385 299.394 260.385C297.256 260.385 295.512 259.93 294.161 259.018C292.811 258.098 291.982 256.793 291.676 255.103L295.267 254.556C295.491 255.492 295.951 256.201 296.647 256.681C297.343 257.154 298.25 257.39 299.369 257.39C300.587 257.39 301.561 257.137 302.29 256.632C303.019 256.118 303.384 255.492 303.384 254.755C303.384 254.158 303.16 253.657 302.712 253.251C302.273 252.845 301.598 252.538 300.687 252.331L297.455 251.623C295.674 251.217 294.356 250.571 293.503 249.684C292.657 248.797 292.235 247.675 292.235 246.316C292.235 245.189 292.55 244.203 293.179 243.358C293.809 242.512 294.679 241.854 295.79 241.381C296.9 240.901 298.172 240.661 299.605 240.661C301.668 240.661 303.292 241.108 304.477 242.003C305.662 242.889 306.445 244.078 306.826 245.57ZM325.591 245.57L322.223 246.167C322.082 245.736 321.858 245.326 321.552 244.936C321.253 244.547 320.847 244.228 320.334 243.979C319.82 243.73 319.178 243.606 318.407 243.606C317.355 243.606 316.477 243.842 315.772 244.315C315.068 244.779 314.716 245.379 314.716 246.117C314.716 246.755 314.952 247.269 315.424 247.658C315.896 248.047 316.659 248.366 317.711 248.615L320.744 249.311C322.5 249.717 323.81 250.343 324.671 251.188C325.533 252.033 325.964 253.131 325.964 254.482C325.964 255.625 325.633 256.644 324.97 257.539C324.315 258.426 323.399 259.122 322.223 259.627C321.055 260.133 319.7 260.385 318.159 260.385C316.021 260.385 314.277 259.93 312.926 259.018C311.575 258.098 310.747 256.793 310.44 255.103L314.032 254.556C314.256 255.492 314.716 256.201 315.412 256.681C316.108 257.154 317.015 257.39 318.134 257.39C319.352 257.39 320.325 257.137 321.055 256.632C321.784 256.118 322.148 255.492 322.148 254.755C322.148 254.158 321.925 253.657 321.477 253.251C321.038 252.845 320.363 252.538 319.451 252.331L316.22 251.623C314.438 251.217 313.121 250.571 312.267 249.684C311.422 248.797 310.999 247.675 310.999 246.316C310.999 245.189 311.314 244.203 311.944 243.358C312.574 242.512 313.444 241.854 314.554 241.381C315.664 240.901 316.936 240.661 318.37 240.661C320.433 240.661 322.057 241.108 323.242 242.003C324.427 242.889 325.21 244.078 325.591 245.57Z" fill="white"/>
<defs>
<clipPath id="clip0_70_12">
<rect width="130" height="130" fill="white" transform="translate(150 73)"/>
</clipPath>
</defs>
</svg>
