<svg width="100" height="100" viewBox="0 0 100 100" fill="none" xmlns="http://www.w3.org/2000/svg">
<path d="M62.9834 22.4375C61.2251 22.4375 59.7431 21.8348 58.5376 20.6292C57.332 19.4237 56.7306 17.9431 56.7334 16.1875C56.7362 14.432 57.3376 12.95 58.5376 11.7417C59.7376 10.5334 61.2195 9.93198 62.9834 9.93754C64.7473 9.94309 66.2279 10.5445 67.4251 11.7417C68.6223 12.9389 69.2251 14.4209 69.2334 16.1875C69.2417 17.9542 68.639 19.4348 67.4251 20.6292C66.2112 21.8237 64.7306 22.4264 62.9834 22.4375ZM42.5959 43.2709L52.0834 53.175V77.0834H47.9168V56.4917L28.5751 41.8125L45.6084 24.775C46.2445 24.1389 46.9723 23.657 47.7918 23.3292C48.6112 23.0014 49.4862 22.8375 50.4168 22.8375C51.3473 22.8375 52.2223 23.0014 53.0417 23.3292C53.8612 23.657 54.589 24.1389 55.2251 24.775L63.1418 32.6917C64.964 34.5139 67.0848 36.025 69.5042 37.225C71.9237 38.425 74.589 39.157 77.5001 39.4209V43.75C73.8195 43.4834 70.5279 42.6487 67.6251 41.2459C64.7223 39.8431 62.1056 37.975 59.7751 35.6417L55.0001 30.8667L42.5959 43.2709ZM22.4376 52.5625C27.6126 52.5625 31.9515 54.3139 35.4543 57.8167C38.9543 61.3167 40.7043 65.6556 40.7043 70.8334C40.7043 76.0112 38.9543 80.35 35.4543 83.85C31.9543 87.35 27.6154 89.1 22.4376 89.1C17.2598 89.1 12.9209 87.35 9.42092 83.85C5.92092 80.35 4.16953 76.0112 4.16675 70.8334C4.16397 65.6556 5.91397 61.3167 9.41675 57.8167C12.9195 54.3167 17.2598 52.5667 22.4376 52.5667M22.4376 85.4167C26.5015 85.4167 29.9473 84.0028 32.7751 81.175C35.6029 78.3473 37.0181 74.9 37.0209 70.8334C37.0237 66.7667 35.6084 63.3195 32.7751 60.4917C29.9418 57.6639 26.4959 56.25 22.4376 56.25C18.3793 56.25 14.932 57.6639 12.0959 60.4917C9.25981 63.3195 7.84592 66.7667 7.85425 70.8334C7.86258 74.9 9.27647 78.3473 12.0959 81.175C14.9237 84.0028 18.3709 85.4167 22.4376 85.4167ZM77.5626 52.5667C82.7404 52.5667 87.0806 54.3167 90.5834 57.8167C94.0862 61.3167 95.8362 65.6556 95.8334 70.8334C95.8306 76.0112 94.0806 80.35 90.5834 83.85C87.0862 87.35 82.7473 89.1 77.5667 89.1C72.3862 89.1 68.0459 87.35 64.5459 83.85C61.0459 80.35 59.2959 76.0112 59.2959 70.8334C59.2959 65.6556 61.0459 61.3167 64.5459 57.8167C68.0459 54.3167 72.382 52.5667 77.5626 52.5667ZM77.5667 85.4167C81.6306 85.4167 85.0765 84.0028 87.9042 81.175C90.7348 78.3473 92.1501 74.9 92.1501 70.8334C92.1501 66.7667 90.7348 63.3195 87.9042 60.4917C85.0737 57.6639 81.6265 56.25 77.5626 56.25C73.4987 56.25 70.0529 57.6639 67.2251 60.4917C64.3973 63.3195 62.9834 66.7667 62.9834 70.8334C62.9834 74.9 64.3973 78.3473 67.2251 81.175C70.0529 84.0028 73.5001 85.4167 77.5667 85.4167Z" fill="white"/>
</svg>
