<svg width="430" height="200" viewBox="0 0 430 200" fill="none" xmlns="http://www.w3.org/2000/svg">
<rect width="430" height="200" fill="#A55EEA"/>
<path d="M128.797 159V133.545H137.87C139.842 133.545 141.478 133.885 142.779 134.565C144.088 135.244 145.066 136.185 145.712 137.386C146.359 138.579 146.682 139.959 146.682 141.525C146.682 143.083 146.355 144.454 145.7 145.639C145.054 146.815 144.076 147.731 142.767 148.386C141.466 149.04 139.829 149.368 137.857 149.368H130.984V146.061H137.509C138.752 146.061 139.763 145.883 140.542 145.527C141.329 145.171 141.905 144.653 142.27 143.973C142.634 143.294 142.816 142.478 142.816 141.525C142.816 140.564 142.63 139.731 142.257 139.027C141.893 138.322 141.317 137.784 140.529 137.411C139.751 137.03 138.727 136.839 137.46 136.839H132.637V159H128.797ZM141.362 147.516L147.651 159H143.276L137.112 147.516H141.362ZM158.859 159.385C157.069 159.385 155.507 158.975 154.173 158.155C152.839 157.335 151.804 156.187 151.066 154.712C150.329 153.237 149.96 151.514 149.96 149.542C149.96 147.561 150.329 145.829 151.066 144.346C151.804 142.863 152.839 141.711 154.173 140.891C155.507 140.071 157.069 139.661 158.859 139.661C160.649 139.661 162.211 140.071 163.545 140.891C164.879 141.711 165.915 142.863 166.652 144.346C167.39 145.829 167.758 147.561 167.758 149.542C167.758 151.514 167.39 153.237 166.652 154.712C165.915 156.187 164.879 157.335 163.545 158.155C162.211 158.975 160.649 159.385 158.859 159.385ZM158.872 156.266C160.032 156.266 160.993 155.959 161.755 155.346C162.517 154.733 163.081 153.917 163.445 152.897C163.818 151.878 164.005 150.755 164.005 149.529C164.005 148.311 163.818 147.192 163.445 146.173C163.081 145.146 162.517 144.321 161.755 143.7C160.993 143.078 160.032 142.768 158.872 142.768C157.703 142.768 156.734 143.078 155.963 143.7C155.201 144.321 154.633 145.146 154.26 146.173C153.896 147.192 153.714 148.311 153.714 149.529C153.714 150.755 153.896 151.878 154.26 152.897C154.633 153.917 155.201 154.733 155.963 155.346C156.734 155.959 157.703 156.266 158.872 156.266ZM179.053 159.373C177.512 159.373 176.136 158.979 174.927 158.192C173.725 157.397 172.781 156.266 172.093 154.799C171.413 153.324 171.074 151.555 171.074 149.492C171.074 147.429 171.418 145.664 172.105 144.197C172.801 142.73 173.754 141.608 174.964 140.829C176.174 140.05 177.545 139.661 179.078 139.661C180.263 139.661 181.216 139.859 181.937 140.257C182.666 140.647 183.229 141.102 183.627 141.624C184.033 142.146 184.348 142.606 184.572 143.004H184.795V133.545H188.512V159H184.882V156.029H184.572C184.348 156.435 184.025 156.9 183.602 157.422C183.188 157.944 182.616 158.399 181.887 158.789C181.158 159.178 180.213 159.373 179.053 159.373ZM179.873 156.203C180.942 156.203 181.845 155.922 182.583 155.358C183.329 154.787 183.892 153.995 184.273 152.984C184.663 151.973 184.857 150.797 184.857 149.455C184.857 148.129 184.667 146.969 184.286 145.974C183.905 144.98 183.345 144.205 182.608 143.65C181.87 143.095 180.959 142.817 179.873 142.817C178.755 142.817 177.823 143.107 177.077 143.688C176.331 144.268 175.768 145.059 175.387 146.061C175.014 147.064 174.827 148.195 174.827 149.455C174.827 150.731 175.018 151.878 175.399 152.897C175.78 153.917 176.344 154.724 177.089 155.321C177.843 155.909 178.771 156.203 179.873 156.203ZM199.371 159.423C198.162 159.423 197.068 159.199 196.09 158.751C195.112 158.296 194.338 157.637 193.766 156.775C193.202 155.913 192.921 154.857 192.921 153.606C192.921 152.529 193.128 151.642 193.542 150.946C193.956 150.25 194.516 149.699 195.22 149.293C195.924 148.887 196.712 148.58 197.582 148.373C198.452 148.166 199.338 148.009 200.241 147.901C201.385 147.768 202.313 147.661 203.025 147.578C203.738 147.487 204.256 147.342 204.579 147.143C204.902 146.944 205.064 146.621 205.064 146.173V146.086C205.064 145.001 204.757 144.16 204.144 143.563C203.539 142.967 202.636 142.668 201.435 142.668C200.183 142.668 199.197 142.946 198.476 143.501C197.764 144.048 197.271 144.657 196.997 145.328L193.505 144.533C193.919 143.373 194.524 142.436 195.32 141.724C196.123 141.003 197.047 140.481 198.091 140.158C199.135 139.826 200.233 139.661 201.385 139.661C202.147 139.661 202.955 139.752 203.809 139.934C204.67 140.108 205.474 140.431 206.22 140.903C206.974 141.376 207.591 142.051 208.072 142.929C208.552 143.799 208.793 144.93 208.793 146.322V159H205.163V156.39H205.014C204.774 156.871 204.413 157.343 203.933 157.807C203.452 158.271 202.835 158.656 202.081 158.963C201.327 159.269 200.424 159.423 199.371 159.423ZM200.179 156.44C201.207 156.44 202.085 156.237 202.814 155.831C203.552 155.425 204.111 154.894 204.492 154.24C204.882 153.577 205.076 152.868 205.076 152.114V149.653C204.944 149.786 204.687 149.91 204.306 150.026C203.933 150.134 203.506 150.229 203.025 150.312C202.545 150.387 202.077 150.457 201.621 150.523C201.165 150.581 200.784 150.631 200.478 150.673C199.757 150.764 199.098 150.917 198.501 151.132C197.913 151.348 197.441 151.659 197.084 152.065C196.736 152.462 196.562 152.993 196.562 153.656C196.562 154.575 196.902 155.271 197.582 155.744C198.261 156.208 199.127 156.44 200.179 156.44ZM223.303 159V133.545H227.144V155.694H238.678V159H223.303ZM242.761 159V139.909H246.477V159H242.761ZM244.638 136.963C243.991 136.963 243.436 136.748 242.972 136.317C242.516 135.878 242.289 135.356 242.289 134.751C242.289 134.138 242.516 133.616 242.972 133.185C243.436 132.746 243.991 132.526 244.638 132.526C245.284 132.526 245.835 132.746 246.291 133.185C246.755 133.616 246.987 134.138 246.987 134.751C246.987 135.356 246.755 135.878 246.291 136.317C245.835 136.748 245.284 136.963 244.638 136.963ZM267.808 139.909L260.885 159H256.908L249.973 139.909H253.963L258.797 154.6H258.996L263.819 139.909H267.808ZM271.301 159V139.909H274.893V142.942H275.092C275.44 141.914 276.053 141.106 276.931 140.518C277.818 139.922 278.82 139.623 279.939 139.623C280.171 139.623 280.445 139.632 280.759 139.648C281.083 139.665 281.335 139.685 281.518 139.71V143.265C281.368 143.223 281.103 143.178 280.722 143.128C280.341 143.07 279.96 143.041 279.579 143.041C278.7 143.041 277.917 143.228 277.23 143.6C276.55 143.965 276.012 144.475 275.614 145.129C275.216 145.776 275.017 146.513 275.017 147.342V159H271.301ZM292.278 159.385C290.397 159.385 288.777 158.983 287.418 158.18C286.068 157.368 285.024 156.228 284.286 154.762C283.557 153.287 283.192 151.559 283.192 149.579C283.192 147.623 283.557 145.9 284.286 144.408C285.024 142.917 286.051 141.753 287.369 140.916C288.694 140.079 290.244 139.661 292.017 139.661C293.094 139.661 294.138 139.839 295.149 140.195C296.16 140.551 297.067 141.111 297.871 141.873C298.675 142.635 299.309 143.625 299.773 144.843C300.237 146.053 300.469 147.524 300.469 149.256V150.573H285.293V147.789H296.827C296.827 146.811 296.628 145.945 296.23 145.191C295.833 144.429 295.273 143.828 294.552 143.389C293.84 142.95 293.003 142.73 292.042 142.73C290.998 142.73 290.086 142.987 289.307 143.501C288.537 144.007 287.94 144.669 287.518 145.49C287.103 146.302 286.896 147.184 286.896 148.137V150.312C286.896 151.588 287.12 152.674 287.567 153.569C288.023 154.463 288.657 155.147 289.469 155.619C290.281 156.083 291.23 156.315 292.315 156.315C293.02 156.315 293.662 156.216 294.242 156.017C294.822 155.81 295.323 155.503 295.746 155.097C296.168 154.691 296.491 154.19 296.715 153.593L300.233 154.227C299.951 155.263 299.445 156.17 298.716 156.949C297.995 157.72 297.088 158.321 295.994 158.751C294.909 159.174 293.67 159.385 292.278 159.385Z" fill="white"/>
<path d="M227.983 47.4375C226.225 47.4375 224.743 46.8348 223.538 45.6292C222.332 44.4237 221.731 42.9431 221.733 41.1875C221.736 39.432 222.338 37.95 223.538 36.7417C224.738 35.5334 226.22 34.932 227.983 34.9375C229.747 34.9431 231.228 35.5445 232.425 36.7417C233.622 37.9389 234.225 39.4209 234.233 41.1875C234.242 42.9542 233.639 44.4348 232.425 45.6292C231.211 46.8237 229.731 47.4264 227.983 47.4375ZM207.596 68.2709L217.083 78.175V102.083H212.917V81.4917L193.575 66.8125L210.608 49.775C211.245 49.1389 211.972 48.657 212.792 48.3292C213.611 48.0014 214.486 47.8375 215.417 47.8375C216.347 47.8375 217.222 48.0014 218.042 48.3292C218.861 48.657 219.589 49.1389 220.225 49.775L228.142 57.6917C229.964 59.5139 232.085 61.025 234.504 62.225C236.924 63.425 239.589 64.157 242.5 64.4209V68.75C238.82 68.4834 235.528 67.6487 232.625 66.2459C229.722 64.8431 227.106 62.975 224.775 60.6417L220 55.8667L207.596 68.2709ZM187.438 77.5625C192.613 77.5625 196.951 79.3139 200.454 82.8167C203.954 86.3167 205.704 90.6556 205.704 95.8334C205.704 101.011 203.954 105.35 200.454 108.85C196.954 112.35 192.615 114.1 187.438 114.1C182.26 114.1 177.921 112.35 174.421 108.85C170.921 105.35 169.17 101.011 169.167 95.8334C169.164 90.6556 170.914 86.3167 174.417 82.8167C177.92 79.3167 182.26 77.5667 187.438 77.5667M187.438 110.417C191.501 110.417 194.947 109.003 197.775 106.175C200.603 103.347 202.018 99.9 202.021 95.8334C202.024 91.7667 200.608 88.3195 197.775 85.4917C194.942 82.6639 191.496 81.25 187.438 81.25C183.379 81.25 179.932 82.6639 177.096 85.4917C174.26 88.3195 172.846 91.7667 172.854 95.8334C172.863 99.9 174.276 103.347 177.096 106.175C179.924 109.003 183.371 110.417 187.438 110.417ZM242.563 77.5667C247.74 77.5667 252.081 79.3167 255.583 82.8167C259.086 86.3167 260.836 90.6556 260.833 95.8334C260.831 101.011 259.081 105.35 255.583 108.85C252.086 112.35 247.747 114.1 242.567 114.1C237.386 114.1 233.046 112.35 229.546 108.85C226.046 105.35 224.296 101.011 224.296 95.8334C224.296 90.6556 226.046 86.3167 229.546 82.8167C233.046 79.3167 237.382 77.5667 242.563 77.5667ZM242.567 110.417C246.631 110.417 250.076 109.003 252.904 106.175C255.735 103.347 257.15 99.9 257.15 95.8334C257.15 91.7667 255.735 88.3195 252.904 85.4917C250.074 82.6639 246.626 81.25 242.563 81.25C238.499 81.25 235.053 82.6639 232.225 85.4917C229.397 88.3195 227.983 91.7667 227.983 95.8334C227.983 99.9 229.397 103.347 232.225 106.175C235.053 109.003 238.5 110.417 242.567 110.417Z" fill="white"/>
</svg>
